# xmcd
#
# Track frame offsets:
#	150
#	13258
#	33174
#	47531
#	64037
#	79884
#	90768
#	104130
#	118377
#	134015
#	157081
#	176787
#	187982
#	203039
#	242651
#	258861
#	276897
#	291846
#	311274
#
# Disc length: 4381 seconds
#
# Revision: 0
# Processed by: cddbd v1.5.1PL0 Copyright (c) Steve Scherf et al.
# Submitted via: dBpowerAMP V4.0
#
DISCID=0f111b13
DTITLE=varios - 2
DYEAR=1900
DGENRE=Acapella
TTITLE0=zapatillas
TTITLE1=ola
TTITLE2=feo
TTITLE3=fea
TTITLE4=guapo
TTITLE5=guapa
TTITLE6=mama
TTITLE7=papa
TTITLE8=tio
TTITLE9=tia
TTITLE10=reloj
TTITLE11=cama
TTITLE12=muñeca
TTITLE13=oro
TTITLE14=plata
TTITLE15=metal
TTITLE16=dedo
TTITLE17=pia
TTITLE18=pie
EXTD=\n\n
EXTT0=
EXTT1=
EXTT2=
EXTT3=
EXTT4=
EXTT5=
EXTT6=
EXTT7=
EXTT8=
EXTT9=
EXTT10=
EXTT11=
EXTT12=
EXTT13=
EXTT14=
EXTT15=
EXTT16=
EXTT17=
EXTT18=
PLAYORDER=
